<mxfile host="app.diagrams.net" modified="2024-01-30T13:56:06.553Z" agent="Mozilla/5.0 (Windows NT 10.0; Win64; x64) AppleWebKit/537.36 (KHTML, like Gecko) Chrome/121.0.0.0 Safari/537.36" version="23.0.2" etag="x52F7o1KXOG3pVA_7CdC" type="github">
  <diagram name="Page-1" id="wlVoupsXtOlj3rv1Hrno">
    <mxGraphModel>
      <root>
        <mxCell id="0" />
        <mxCell id="1" parent="0" />
      </root>
    </mxGraphModel>
  </diagram>
</mxfile>
